{"title":"Our RoboCop Remake (2014) 720p","uid":9580302,"size":2161859098,"categoryP":"video","categoryS":"hd___movies","magnet":"?xt=urn:btih:52ab9fa1d45aa6c4f42ba055d01fd03fc626b2f8&amp;dn=Our+RoboCop+Remake+%282014%29+720p&amp;tr=udp%3A%2F%2Ftracker.openbittorrent.com%3A80&amp;tr=udp%3A%2F%2Fopen.demonii.com%3A1337&amp;tr=udp%3A%2F%2Ftracker.coppersurfer.tk%3A6969&amp;tr=udp%3A%2F%2Fexodus.desync.com%3A6969","seeders":3,"leechers":0,"uploader":"BigDogMoya","files":-1,"time":1391749533,"description":"Website (Watch Online):\n &lt;a href=&quot;\nhttp://www.ourrobocopremake.com&quot; rel=&quot;nofollow&quot; target=&quot;_NEW&quot;&gt;\nhttp://www.ourrobocopremake.com&lt;/a&gt;\n\n\nDescription:\n\n&quot;Our RoboCop Remake is a crowd-sourced film project based on the 1987 Paul Verhoeven classic. Connected through various filmmaking channels (including Channel 101) we're 50 filmmakers (amateur and professional)  from Los Angeles and New York who have split the original RoboCop into individual pieces and have remade the movie ourselves.  Not necessarily a shot-for-shot remake, but a scene-for-scene retelling. As big fans of the original RoboCop, and as filmmakers and film fans admittedly rolling our eyes at the Hollywood remake machine, we've elected to do this remake thing our own way.        \n\nOur RoboCop Remake premiered in Los Angeles on January 26th and New York on February 5th. On February 6th, it was released online.\n\nBecause if anyone is going to ruin RoboCop, it's us.&quot;\n\n\nScreens:\n &lt;a href=&quot;\nhttp://i.imgur.com/PD0rHuK.png&quot; rel=&quot;nofollow&quot; target=&quot;_NEW&quot;&gt;\nhttp://i.imgur.com/PD0rHuK.png&lt;/a&gt;\n &lt;a href=&quot;\nhttp://i.imgur.com/9FCXyzY.png&quot; rel=&quot;nofollow&quot; target=&quot;_NEW&quot;&gt;\nhttp://i.imgur.com/9FCXyzY.png&lt;/a&gt;\n &lt;a href=&quot;\nhttp://i.imgur.com/htkfBNe.png&quot; rel=&quot;nofollow&quot; target=&quot;_NEW&quot;&gt;\nhttp://i.imgur.com/htkfBNe.png&lt;/a&gt;\n &lt;a href=&quot;\nhttp://i.imgur.com/0j1F9xl.png&quot; rel=&quot;nofollow&quot; target=&quot;_NEW&quot;&gt;\nhttp://i.imgur.com/0j1F9xl.png&lt;/a&gt;\n &lt;a href=&quot;\nhttp://i.imgur.com/UJLx2gA.png&quot; rel=&quot;nofollow&quot; target=&quot;_NEW&quot;&gt;\nhttp://i.imgur.com/UJLx2gA.png&lt;/a&gt;\n\n\nVideo and Audio Information:\n\nVideo\nID                                       : 1\nFormat                                   : AVC\nFormat/Info                              : Advanced Video Codec\nFormat profile                           : &lt;a class=&quot;__cf_email__&quot; href=&quot;/cdn-cgi/l/email-protection&quot; data-cfemail=&quot;3078595758707c031e01&quot;&gt;[email&amp;#160;protected]&lt;/a&gt;&lt;script cf-hash='f9e31' type=&quot;text/javascript&quot;&gt;\n/* &lt;![CDATA[ */!function(){try{var t=&quot;currentScript&quot;in document?document.currentScript:function(){for(var t=document.getElementsByTagName(&quot;script&quot;),e=t.length;e--;)if(t[e].getAttribute(&quot;cf-hash&quot;))return t[e]}();if(t&amp;&amp;t.previousSibling){var e,r,n,i,c=t.previousSibling,a=c.getAttribute(&quot;data-cfemail&quot;);if(a){for(e=&quot;&quot;,r=parseInt(a.substr(0,2),16),n=2;a.length-n;n+=2)i=parseInt(a.substr(n,2),16)^r,e+=String.fromCharCode(i);e=document.createTextNode(e),c.parentNode.replaceChild(e,c)}}}catch(u){}}();/* ]]&gt; */&lt;/script&gt;\nFormat settings, CABAC                   : Yes\nFormat settings, ReFrames                : 4 frames\nCodec ID                                 : avc1\nCodec ID/Info                            : Advanced Video Coding\nDuration                                 : 1h 48mn\nBit rate                                 : 2 500 Kbps\nWidth                                    : 1 280 pixels\nHeight                                   : 720 pixels\nDisplay aspect ratio                     : 16:9\nFrame rate mode                          : Constant\nFrame rate                               : 23.976 fps\nColor space                              : YUV\nChroma subsampling                       : 4:2:0\nBit depth                                : 8 bits\nScan type                                : Progressive\nBits/(Pixel*Frame)                       : 0.113\nStream size                              : 1.89 GiB (94%)\nWriting library                          : x264 core\n\n\nAudio\nID                                       : 2\nFormat                                   : AAC\nFormat/Info                              : Advanced Audio Codec\nFormat profile                           : LC\nCodec ID                                 : 40\nDuration                                 : 1h 48mn\nBit rate mode                            : Variable\nBit rate                                 : 147 Kbps\nChannel(s)                               : 2 channels\nChannel positions                        : Front: L R\nSampling rate                            : 48.0 KHz\nCompression mode                         : Lossy\nStream size                              : 114 MiB (6%)","torrent":{"xt":"urn:btih:52ab9fa1d45aa6c4f42ba055d01fd03fc626b2f8","amp;dn":"Our+RoboCop+Remake+%282014%29+720p","amp;tr":["udp%3A%2F%2Ftracker.openbittorrent.com%3A80","udp%3A%2F%2Fopen.demonii.com%3A1337","udp%3A%2F%2Ftracker.coppersurfer.tk%3A6969","udp%3A%2F%2Fexodus.desync.com%3A6969"],"infoHash":"52ab9fa1d45aa6c4f42ba055d01fd03fc626b2f8","infoHashBuffer":{"type":"Buffer","data":[82,171,159,161,212,90,166,196,244,43,160,85,208,31,208,63,198,38,178,248]},"announce":[],"urlList":[]}}